{
  "source": "C:\\Users\\Peter\\Desktop\\stuff\\MIUN\\quantitative_research\\video_compression\\videos\\BVI-HD\\Bookcase_1920x1080_60fps.mp4",
  "output": "C:\\Users\\Peter\\Desktop\\stuff\\MIUN\\quantitative_research\\video_compression\\compressed_videos\\BVI-HD\\h264\\12\\Bookcase_1920x1080_60fps_h264.mp4",
  "codec": "h264",
  "ok": "Input #0, mov,mp4,m4a,3gp,3g2,mj2, from 'C:\\Users\\Peter\\Desktop\\stuff\\MIUN\\quantitative_research\\video_compression\\videos\\BVI-HD\\Bookcase_1920x1080_60fps.mp4':\n  Metadata:\n    major_brand     : isom\n    minor_version   : 512\n    compatible_brands: isomiso2avc1mp41\n    encoder         : Lavf54.28.101\n  Duration: 00:00:05.00, start: 0.000000, bitrate: 336321 kb/s\n  Stream #0:0[0x1](und): Video: h264 (High 4:4:4 Predictive) (avc1 / 0x31637661), yuv420p(progressive), 1920x1080, 336316 kb/s, 60 fps, 60 tbr, 60 tbn (default)\n    Metadata:\n      handler_name    : VideoHandler\n      vendor_id       : [0][0][0][0]\n[out#0/mp4 @ 0000018b76fead80] Codec AVOption b:a (set bitrate (in bits/s)) has not been used for any stream. The most likely reason is either wrong type (e.g. a video option with no video streams) or that it is a private option of some decoder which was not actually used for any stream.\nStream mapping:\n  Stream #0:0 -> #0:0 (h264 (native) -> h264 (libx264))\nPress [q] to stop, [?] for help\n[libx264 @ 0000018b76a5aa40] using cpu capabilities: MMX2 SSE2Fast SSSE3 SSE4.2 AVX FMA3 BMI2 AVX2\n[libx264 @ 0000018b76a5aa40] profile High, level 5.0, 4:2:0, 8-bit\n[libx264 @ 0000018b76a5aa40] 264 - core 165 r3222 b35605a - H.264/MPEG-4 AVC codec - Copyleft 2003-2025 - http://www.videolan.org/x264.html - options: cabac=1 ref=5 deblock=1:0:0 analyse=0x3:0x113 me=hex subme=8 psy=1 psy_rd=1.00:0.00 mixed_ref=1 me_range=16 chroma_me=1 trellis=2 8x8dct=1 cqm=0 deadzone=21,11 fast_pskip=1 chroma_qp_offset=-2 threads=18 lookahead_threads=3 sliced_threads=0 nr=0 decimate=1 interlaced=0 bluray_compat=0 constrained_intra=0 bframes=3 b_pyramid=2 b_adapt=1 b_bias=0 direct=3 weightb=1 open_gop=0 weightp=2 keyint=250 keyint_min=25 scenecut=40 intra_refresh=0 rc_lookahead=50 rc=cbr mbtree=1 bitrate=12000 ratetol=1.0 qcomp=0.60 qpmin=0 qpmax=69 qpstep=4 vbv_maxrate=12000 vbv_bufsize=12000 nal_hrd=none filler=0 ip_ratio=1.40 aq=1:1.00\nOutput #0, mp4, to 'C:\\Users\\Peter\\Desktop\\stuff\\MIUN\\quantitative_research\\video_compression\\compressed_videos\\BVI-HD\\h264\\12\\Bookcase_1920x1080_60fps_h264.mp4':\n  Metadata:\n    major_brand     : isom\n    minor_version   : 512\n    compatible_brands: isomiso2avc1mp41\n    encoder         : Lavf62.3.100\n  Stream #0:0(und): Video: h264 (avc1 / 0x31637661), yuv420p(tv, progressive), 1920x1080, q=2-31, 12000 kb/s, 60 fps, 15360 tbn (default)\n    Metadata:\n      encoder         : Lavc62.11.100 libx264\n      handler_name    : VideoHandler\n      vendor_id       : [0][0][0][0]\n    Side data:\n      cpb: bitrate max/min/avg: 12000000/0/12000000 buffer size: 12000000 vbv_delay: N/A\nframe=    0 fps=0.0 q=0.0 size=       0KiB time=N/A bitrate=N/A speed=N/A elapsed=0:00:01.12    \nframe=    0 fps=0.0 q=0.0 size=       0KiB time=N/A bitrate=N/A speed=N/A elapsed=0:00:01.71    \nframe=    0 fps=0.0 q=0.0 size=       0KiB time=N/A bitrate=N/A speed=N/A elapsed=0:00:02.25    \nframe=    0 fps=0.0 q=0.0 size=       0KiB time=N/A bitrate=N/A speed=N/A elapsed=0:00:02.79    \nframe=    0 fps=0.0 q=0.0 size=       0KiB time=N/A bitrate=N/A speed=N/A elapsed=0:00:03.31    \nframe=    0 fps=0.0 q=0.0 size=       0KiB time=N/A bitrate=N/A speed=N/A elapsed=0:00:03.84    \nframe=    0 fps=0.0 q=0.0 size=       0KiB time=N/A bitrate=N/A speed=N/A elapsed=0:00:04.36    \nframe=    0 fps=0.0 q=0.0 size=       0KiB time=N/A bitrate=N/A speed=N/A elapsed=0:00:04.90    \nframe=    0 fps=0.0 q=0.0 size=       0KiB time=N/A bitrate=N/A speed=N/A elapsed=0:00:05.45    \nframe=    0 fps=0.0 q=0.0 size=       0KiB time=N/A bitrate=N/A speed=N/A elapsed=0:00:05.99    \nframe=    0 fps=0.0 q=0.0 size=       0KiB time=N/A bitrate=N/A speed=N/A elapsed=0:00:06.52    \nframe=    0 fps=0.0 q=0.0 size=       0KiB time=N/A bitrate=N/A speed=N/A elapsed=0:00:07.18    \nframe=    1 fps=0.1 q=27.0 size=       0KiB time=-00:00:00.01 bitrate=N/A speed=N/A elapsed=0:00:07.85    \nframe=    7 fps=0.8 q=29.0 size=       0KiB time=00:00:00.08 bitrate=   4.6kbits/s speed=0.00992x elapsed=0:00:08.39    \nframe=   14 fps=1.6 q=26.0 size=     256KiB time=00:00:00.16 bitrate=12585.2kbits/s speed=0.0186x elapsed=0:00:08.97    \nframe=   15 fps=1.6 q=26.0 size=     256KiB time=00:00:00.21 bitrate=9680.9kbits/s speed=0.0227x elapsed=0:00:09.53    \nframe=   16 fps=1.6 q=25.0 size=     256KiB time=00:00:00.23 bitrate=8989.5kbits/s speed=0.0232x elapsed=0:00:10.04    \nframe=   16 fps=1.5 q=25.0 size=     256KiB time=00:00:00.23 bitrate=8989.5kbits/s speed=0.0221x elapsed=0:00:10.56    \nframe=   16 fps=1.4 q=25.0 size=     256KiB time=00:00:00.23 bitrate=8989.5kbits/s speed=0.021x elapsed=0:00:11.10    \nframe=   24 fps=2.0 q=24.0 size=     512KiB time=00:00:00.31 bitrate=13246.4kbits/s speed=0.027x elapsed=0:00:11.71    \nframe=   30 fps=2.4 q=26.0 size=     512KiB time=00:00:00.45 bitrate=9321.5kbits/s speed=0.0362x elapsed=0:00:12.43    \nframe=   36 fps=2.8 q=27.0 size=     512KiB time=00:00:00.56 bitrate=7402.4kbits/s speed=0.0437x elapsed=0:00:12.97    \nframe=   36 fps=2.7 q=27.0 size=     512KiB time=00:00:00.56 bitrate=7402.4kbits/s speed=0.0419x elapsed=0:00:13.51    \nframe=   41 fps=2.9 q=28.0 size=     768KiB time=00:00:00.65 bitrate=9679.8kbits/s speed=0.0462x elapsed=0:00:14.05    \nframe=   50 fps=3.4 q=28.0 size=    1024KiB time=00:00:00.80 bitrate=10486.2kbits/s speed=0.0547x elapsed=0:00:14.62    \nframe=   51 fps=3.4 q=28.0 size=    1024KiB time=00:00:00.81 bitrate=10272.2kbits/s speed=0.0538x elapsed=0:00:15.17    \nframe=   54 fps=3.4 q=28.0 size=    1024KiB time=00:00:00.86 bitrate=9679.6kbits/s speed=0.0551x elapsed=0:00:15.72    \nframe=   54 fps=3.3 q=28.0 size=    1024KiB time=00:00:00.86 bitrate=9679.6kbits/s speed=0.0533x elapsed=0:00:16.26    \nframe=   59 fps=3.5 q=25.0 size=    1024KiB time=00:00:00.95 bitrate=8830.5kbits/s speed=0.0563x elapsed=0:00:16.87    \nframe=   66 fps=3.8 q=24.0 size=    1280KiB time=00:00:01.03 bitrate=10147.9kbits/s speed=0.059x elapsed=0:00:17.52    \nframe=   74 fps=4.1 q=25.0 size=    1536KiB time=00:00:01.20 bitrate=10486.1kbits/s speed=0.0663x elapsed=0:00:18.09    \nframe=   78 fps=4.2 q=25.0 size=    1536KiB time=00:00:01.26 bitrate=9934.2kbits/s speed=0.068x elapsed=0:00:18.61    \nframe=   86 fps=4.5 q=25.0 size=    1792KiB time=00:00:01.40 bitrate=10486.0kbits/s speed=0.0729x elapsed=0:00:19.19    \nframe=   87 fps=4.4 q=25.0 size=    1792KiB time=00:00:01.41 bitrate=10362.7kbits/s speed=0.0713x elapsed=0:00:19.87    \nframe=   87 fps=4.2 q=25.0 size=    1792KiB time=00:00:01.41 bitrate=10362.7kbits/s speed=0.0691x elapsed=0:00:20.49    \nframe=   87 fps=4.1 q=25.0 size=    1792KiB time=00:00:01.41 bitrate=10362.7kbits/s speed=0.0673x elapsed=0:00:21.05    \nframe=   89 fps=4.1 q=25.0 size=    1792KiB time=00:00:01.41 bitrate=10362.7kbits/s speed=0.0656x elapsed=0:00:21.60    \nframe=  105 fps=4.7 q=25.0 size=    2048KiB time=00:00:01.66 bitrate=10066.6kbits/s speed=0.0749x elapsed=0:00:22.25    \nframe=  107 fps=4.7 q=26.0 size=    2048KiB time=00:00:01.75 bitrate=9587.2kbits/s speed=0.0762x elapsed=0:00:22.96    \nframe=  111 fps=4.7 q=26.0 size=    2304KiB time=00:00:01.81 bitrate=10389.8kbits/s speed=0.0768x elapsed=0:00:23.65    \nframe=  118 fps=4.8 q=26.0 size=    2304KiB time=00:00:01.81 bitrate=10389.8kbits/s speed=0.0746x elapsed=0:00:24.34    \nframe=  131 fps=5.2 q=26.0 size=    2560KiB time=00:00:02.11 bitrate=9908.0kbits/s speed=0.0844x elapsed=0:00:25.06    \nframe=  135 fps=5.2 q=26.0 size=    2560KiB time=00:00:02.21 bitrate=9461.0kbits/s speed=0.0861x elapsed=0:00:25.73    \nframe=  140 fps=5.3 q=26.0 size=    2816KiB time=00:00:02.28 bitrate=10103.2kbits/s speed=0.0863x elapsed=0:00:26.47    \nframe=  151 fps=5.5 q=26.0 size=    3072KiB time=00:00:02.41 bitrate=10413.6kbits/s speed=0.0884x elapsed=0:00:27.33    \nframe=  155 fps=5.5 q=26.0 size=    3072KiB time=00:00:02.55 bitrate=9869.1kbits/s speed=0.0908x elapsed=0:00:28.08    \nframe=  162 fps=5.6 q=26.0 size=    3328KiB time=00:00:02.61 bitrate=10419.1kbits/s speed=0.0904x elapsed=0:00:28.93    \nframe=  168 fps=5.6 q=26.0 size=    3328KiB time=00:00:02.76 bitrate=9854.2kbits/s speed=0.0929x elapsed=0:00:29.77    \nframe=  172 fps=5.6 q=26.0 size=    3584KiB time=00:00:02.83 bitrate=10362.5kbits/s speed=0.0931x elapsed=0:00:30.44    \nframe=  176 fps=5.7 q=26.0 size=    3584KiB time=00:00:02.90 bitrate=10124.3kbits/s speed=0.0936x elapsed=0:00:30.99    \nframe=  183 fps=5.8 q=26.0 size=    3840KiB time=00:00:02.95 bitrate=10663.6kbits/s speed=0.0929x elapsed=0:00:31.75    \nframe=  185 fps=5.7 q=26.0 size=    3840KiB time=00:00:03.05 bitrate=10314.0kbits/s speed=0.0939x elapsed=0:00:32.49    \nframe=  191 fps=5.8 q=26.0 size=    4096KiB time=00:00:03.15 bitrate=10652.3kbits/s speed=0.0954x elapsed=0:00:33.01    \nframe=  192 fps=5.7 q=26.0 size=    4096KiB time=00:00:03.16 bitrate=10596.3kbits/s speed=0.0944x elapsed=0:00:33.52    \nframe=  192 fps=5.6 q=26.0 size=    4096KiB time=00:00:03.16 bitrate=10596.3kbits/s speed=0.093x elapsed=0:00:34.04    \nframe=  193 fps=5.6 q=26.0 size=    4096KiB time=00:00:03.18 bitrate=10540.8kbits/s speed=0.0921x elapsed=0:00:34.55    \nframe=  198 fps=5.6 q=27.0 size=    4352KiB time=00:00:03.26 bitrate=10913.9kbits/s speed=0.0931x elapsed=0:00:35.08    \nframe=  204 fps=5.7 q=27.0 size=    4608KiB time=00:00:03.36 bitrate=11212.6kbits/s speed=0.0946x elapsed=0:00:35.58    \nframe=  212 fps=5.9 q=27.0 size=    4608KiB time=00:00:03.50 bitrate=10785.5kbits/s speed=0.0969x elapsed=0:00:36.11    \nframe=  212 fps=5.8 q=27.0 size=    4608KiB time=00:00:03.50 bitrate=10785.5kbits/s speed=0.0956x elapsed=0:00:36.61    \nframe=  214 fps=5.8 q=27.0 size=    4864KiB time=00:00:03.53 bitrate=11277.2kbits/s speed=0.0951x elapsed=0:00:37.13    \nframe=  214 fps=5.7 q=27.0 size=    4864KiB time=00:00:03.53 bitrate=11277.2kbits/s speed=0.0939x elapsed=0:00:37.64    \nframe=  223 fps=5.8 q=27.0 size=    5120KiB time=00:00:03.68 bitrate=11387.4kbits/s speed=0.0965x elapsed=0:00:38.17    \nframe=  232 fps=6.0 q=27.0 size=    5120KiB time=00:00:03.83 bitrate=10941.8kbits/s speed=0.0991x elapsed=0:00:38.69    \nframe=  232 fps=5.9 q=27.0 size=    5120KiB time=00:00:03.83 bitrate=10941.8kbits/s speed=0.0977x elapsed=0:00:39.22    \nframe=  233 fps=5.9 q=27.0 size=    5120KiB time=00:00:03.85 bitrate=10894.4kbits/s speed=0.0969x elapsed=0:00:39.72    \nframe=  236 fps=5.9 q=27.0 size=    5120KiB time=00:00:03.90 bitrate=10754.7kbits/s speed=0.0969x elapsed=0:00:40.25    \nframe=  243 fps=6.0 q=27.0 size=    5376KiB time=00:00:04.01 bitrate=10964.5kbits/s speed=0.0986x elapsed=0:00:40.75    \nframe=  247 fps=6.0 q=27.0 size=    5376KiB time=00:00:04.08 bitrate=10785.4kbits/s speed=0.0989x elapsed=0:00:41.27    \nframe=  254 fps=6.1 q=27.0 size=    5888KiB time=00:00:04.20 bitrate=11484.5kbits/s speed=0.101x elapsed=0:00:41.79    \nframe=  254 fps=6.0 q=27.0 size=    5888KiB time=00:00:04.20 bitrate=11484.5kbits/s speed=0.0993x elapsed=0:00:42.30    \nframe=  254 fps=5.9 q=27.0 size=    5888KiB time=00:00:04.20 bitrate=11484.5kbits/s speed=0.0981x elapsed=0:00:42.81    \nframe=  254 fps=5.9 q=27.0 size=    5888KiB time=00:00:04.20 bitrate=11484.5kbits/s speed=0.0969x elapsed=0:00:43.33    \nframe=  262 fps=6.0 q=27.0 size=    5888KiB time=00:00:04.33 bitrate=11131.1kbits/s speed=0.0988x elapsed=0:00:43.86    \nframe=  266 fps=6.0 q=27.0 size=    6144KiB time=00:00:04.40 bitrate=11439.1kbits/s speed=0.0991x elapsed=0:00:44.41    \nframe=  274 fps=6.1 q=27.0 size=    6144KiB time=00:00:04.53 bitrate=11102.7kbits/s speed=0.101x elapsed=0:00:44.95    \nframe=  274 fps=6.0 q=27.0 size=    6144KiB time=00:00:04.53 bitrate=11102.7kbits/s speed=0.0995x elapsed=0:00:45.56    \nframe=  278 fps=6.0 q=27.0 size=    6400KiB time=00:00:04.60 bitrate=11397.6kbits/s speed=0.0997x elapsed=0:00:46.12    \nframe=  278 fps=6.0 q=27.0 size=    6400KiB time=00:00:04.60 bitrate=11397.6kbits/s speed=0.0985x elapsed=0:00:46.68    \nframe=  284 fps=6.0 q=-1.0 size=    6400KiB time=00:00:04.70 bitrate=11155.1kbits/s speed=0.0995x elapsed=0:00:47.24    \nframe=  284 fps=5.9 q=-1.0 size=    6400KiB time=00:00:04.70 bitrate=11155.1kbits/s speed=0.0984x elapsed=0:00:47.76    \nframe=  292 fps=6.0 q=-1.0 size=    6656KiB time=00:00:04.76 bitrate=11439.1kbits/s speed=0.0987x elapsed=0:00:48.27    \nframe=  292 fps=6.0 q=-1.0 size=    6656KiB time=00:00:04.83 bitrate=11281.3kbits/s speed=0.099x elapsed=0:00:48.83    \n[mp4 @ 0000018b76a49980] Starting second pass: moving the moov atom to the beginning of the file\n[out#0/mp4 @ 0000018b76fead80] video:7070KiB audio:0KiB subtitle:0KiB other streams:0KiB global headers:0KiB muxing overhead: 0.059880%\nframe=  300 fps=6.1 q=-1.0 Lsize=    7074KiB time=00:00:04.96 bitrate=11667.9kbits/s speed=0.101x elapsed=0:00:49.31    \n[libx264 @ 0000018b76a5aa40] frame I:2     Avg QP:21.69  size:130636\n[libx264 @ 0000018b76a5aa40] frame P:93    Avg QP:23.64  size: 59858\n[libx264 @ 0000018b76a5aa40] frame B:205   Avg QP:23.90  size:  6881\n[libx264 @ 0000018b76a5aa40] consecutive B-frames:  2.3% 11.3% 25.0% 61.3%\n[libx264 @ 0000018b76a5aa40] mb I  I16..4:  8.2% 90.1%  1.7%\n[libx264 @ 0000018b76a5aa40] mb P  I16..4:  7.1% 30.0%  0.9%  P16..4: 34.8% 12.9%  4.7%  0.0%  0.0%    skip: 9.7%\n[libx264 @ 0000018b76a5aa40] mb B  I16..4:  1.4%  3.6%  0.0%  B16..8: 29.7%  1.9%  0.3%  direct: 1.2%  skip:62.0%  L0:39.9% L1:55.1% BI: 4.9%\n[libx264 @ 0000018b76a5aa40] 8x8 transform intra:78.0% inter:76.8%\n[libx264 @ 0000018b76a5aa40] direct mvs  spatial:95.6% temporal:4.4%\n[libx264 @ 0000018b76a5aa40] coded y,uvDC,uvAC intra: 54.4% 63.7% 20.8% inter: 10.4% 17.5% 2.4%\n[libx264 @ 0000018b76a5aa40] i16 v,h,dc,p: 58% 30%  5%  7%\n[libx264 @ 0000018b76a5aa40] i8 v,h,dc,ddl,ddr,vr,hd,vl,hu: 46% 20% 19%  1%  2%  2%  3%  3%  3%\n[libx264 @ 0000018b76a5aa40] i4 v,h,dc,ddl,ddr,vr,hd,vl,hu: 41% 18%  4%  3%  9%  8%  8%  5%  4%\n[libx264 @ 0000018b76a5aa40] i8c dc,h,v,p: 24% 27% 40%  9%\n[libx264 @ 0000018b76a5aa40] Weighted P-Frames: Y:0.0% UV:0.0%\n[libx264 @ 0000018b76a5aa40] ref P L0: 70.5% 19.9%  7.5%  1.0%  1.1%  0.1%\n[libx264 @ 0000018b76a5aa40] ref B L0: 94.7%  4.0%  1.1%  0.2%\n[libx264 @ 0000018b76a5aa40] ref B L1: 99.0%  1.0%\n[libx264 @ 0000018b76a5aa40] kb/s:11581.98\n",
  "seconds": 51.688162088394165,
  "probe_out": {}
}